<?xml version="1.0" encoding="iso-8859-1"?>
<!-- Uploaded to: SVG Repo, www.svgrepo.com, Generator: SVG Repo Mixer Tools -->
<svg fill="#000000" height="800px" width="800px" version="1.1" id="Layer_1" xmlns="http://www.w3.org/2000/svg" xmlns:xlink="http://www.w3.org/1999/xlink" 
	 viewBox="0 0 512 512" xml:space="preserve">
<g>
	<g>
		<path d="M431.144,128.815C411.375,103.893,384.511,83.728,353.01,70V0H158.99v69.998c-31.5,13.728-58.366,33.894-78.133,58.815
			c-22.928,28.903-35.046,62.632-35.046,97.544s12.118,68.641,35.046,97.543c19.769,24.922,46.633,45.087,78.133,58.815v70h16.168
			V512h32.337v-59.284h32.337V512h32.337v-59.284h32.337V512h32.337v-59.284h16.168v-69.998
			c31.5-13.728,58.366-33.894,78.133-58.815c22.928-28.903,35.046-62.632,35.046-97.544S454.072,157.716,431.144,128.815z
			 M191.326,32.337h129.347v32.337H191.326V32.337z M336.842,226.358c0,54.921-17.988,104.868-46.177,129.347h-18.497V97.011h18.497
			C318.854,121.489,336.842,171.437,336.842,226.358z M239.832,97.011v258.695h-18.497c-28.189-24.479-46.177-74.426-46.177-129.347
			s17.988-104.868,46.177-129.347H239.832z M178.176,355.705c-60.867-24.069-100.029-74.572-100.029-129.347
			S117.309,121.08,178.176,97.011h0.382c-22.551,32.614-35.737,78.902-35.737,129.347s13.186,96.733,35.737,129.347H178.176z
			 M320.674,420.379H191.326v-32.337h129.347V420.379z M333.824,355.705h-0.382c22.551-32.614,35.737-78.902,35.737-129.347
			s-13.186-96.734-35.737-129.347h0.382c60.867,24.069,100.029,74.572,100.029,129.347S394.691,331.636,333.824,355.705z"/>
	</g>
</g>
</svg>