<?xml version="1.0" encoding="utf-8"?>

<!DOCTYPE svg PUBLIC "-//W3C//DTD SVG 1.1//EN" "http://www.w3.org/Graphics/SVG/1.1/DTD/svg11.dtd">
<!-- Uploaded to: SVG Repo, www.svgrepo.com, Generator: SVG Repo Mixer Tools -->
<svg height="800px" width="800px" version="1.1" id="_x32_" xmlns="http://www.w3.org/2000/svg" xmlns:xlink="http://www.w3.org/1999/xlink" 
	 viewBox="0 0 512 512"  xml:space="preserve">
<style type="text/css">
	.st0{fill:#000000;}
</style>
<g>
	<path class="st0" d="M235.811,172.987c-13.077-15.366-7.696-59.775,19.98-59.775c27.674,0,33.073,55.359,14.615,62.278
		c21.14,2.111,49.755-7.738,60.355-49.789C342.669,78.422,309.996,12.684,268.099,0c-14.606,31.134-79.378,49.645-83.804,109.172
		C180.828,155.69,224.271,172.987,235.811,172.987z"/>
	<path class="st0" d="M339.5,250.521c-2.332-8.525-6.603-16.204-12.702-22.38c-3.024-3.075-6.5-5.783-10.335-8.072
		c-3.827-2.289-8.012-4.176-12.514-5.68c-4.732-1.572-9.695-3.621-14.409-6.039c-3.545-1.803-6.928-3.801-9.951-5.911
		c-4.562-3.144-8.286-6.594-10.601-9.746c-1.152-1.563-1.972-3.049-2.477-4.356c-0.495-1.332-0.709-2.468-0.709-3.57h-0.206v-27.145
		c0-5.424-4.381-9.806-9.797-9.806c-5.415,0-9.806,4.382-9.806,9.806v28.982c-0.077,0.41-0.196,0.837-0.35,1.29
		c-0.666,1.99-2.101,4.407-4.374,6.945c-3.391,3.809-8.567,7.764-14.478,11.172c-5.911,3.409-12.53,6.313-18.74,8.38
		c-5.996,2.007-11.445,4.698-16.22,8.114c-3.579,2.554-6.782,5.527-9.524,8.85c-4.117,4.988-7.193,10.77-9.166,17.066
		c-1.998,6.287-2.929,13.078-2.929,20.244c0,22.499,0,138.385,0,183.374c-0.009,6.68,1.102,12.881,3.152,18.45
		c1.802,4.886,4.314,9.259,7.312,13.086c5.236,6.714,11.864,11.736,18.834,15.546c10.507,5.706,21.884,8.807,32.014,10.626
		c10.123,1.794,18.972,2.246,24.481,2.255c4.792,0,12.112-0.359,20.62-1.615c6.372-0.965,13.402-2.434,20.5-4.748
		c5.314-1.726,10.67-3.921,15.794-6.757c3.836-2.127,7.551-4.63,10.985-7.56c5.168-4.424,9.703-9.916,12.898-16.528
		c3.212-6.612,4.997-14.299,4.988-22.756c0-44.989,0-160.874,0-183.374C341.789,262.3,341.045,256.226,339.5,250.521z
		 M322.186,452.037c-0.009,4.545-0.735,8.354-1.957,11.677c-1.067,2.904-2.528,5.458-4.356,7.807
		c-3.186,4.091-7.568,7.542-12.787,10.387c-7.773,4.271-17.314,6.996-26.027,8.534c-8.721,1.554-16.639,1.956-21.055,1.956
		c-3.853,0-10.361-0.299-17.716-1.401c-5.535-0.837-11.557-2.11-17.357-3.997c-4.34-1.418-8.55-3.169-12.343-5.27
		c-2.853-1.572-5.459-3.34-7.73-5.296c-3.425-2.947-6.116-6.27-8.004-10.165c-1.879-3.921-3.024-8.465-3.04-14.231
		c0-43.119,0-151.36,0-180.094c2.298,1.23,4.784,2.28,7.5,3.228c6.483,2.247,14.145,3.912,22.465,5.065
		c8.302,1.154,17.245,1.751,26.137,1.751c0.684,0,1.376,0,2.05-0.008h0.008c11.583-0.128,20.86-1.086,28.316-2.503
		c11.164-2.126,18.296-5.313,22.849-8.371c4.561-3.058,6.458-6.022,7.013-7.158c1.828-3.707,0.316-8.2-3.383-10.045
		c-3.544-1.76-7.781-0.461-9.763,2.87c-0.06,0.06-0.461,0.598-1.606,1.444c-1.81,1.341-5.501,3.459-12.377,5.279
		c-6.868,1.828-16.904,3.34-31.212,3.493h0.009c-0.64,0-1.273,0.009-1.905,0.009c-7.123,0-14.307-0.428-21.038-1.213
		c-5.04-0.598-9.815-1.409-14.086-2.374c-3.203-0.726-6.116-1.554-8.627-2.418c-1.879-0.666-3.528-1.35-4.877-2.024
		c-2.041-1-3.374-2.033-3.878-2.588c-0.034-0.052-0.068-0.077-0.102-0.12c0.077-1.366-0.214-2.673-0.812-3.818
		c1.572-4.135,3.768-7.576,6.662-10.523c1.828-1.854,3.956-3.528,6.45-5.031c2.494-1.486,5.364-2.81,8.652-3.904
		c5.646-1.88,11.463-4.288,17.109-7.158c4.236-2.169,8.362-4.596,12.249-7.286c0.794-0.563,1.588-1.136,2.374-1.717v6.919
		c0,5.416,4.391,9.798,9.806,9.798c5.416,0,9.797-4.382,9.797-9.798v-7.234c3.101,2.34,6.39,4.501,9.806,6.474
		c7.21,4.168,14.923,7.526,22.346,10.003c4.373,1.469,8.02,3.314,11.01,5.466c2.264,1.615,4.177,3.391,5.808,5.381
		c2.452,2.964,4.313,6.398,5.603,10.489c1.298,4.1,2.016,8.866,2.016,14.342C322.186,291.162,322.186,407.048,322.186,452.037z"/>
</g>
</svg>